<svg xmlns="http://www.w3.org/2000/svg" viewBox="0 0 32 32" role="img" aria-label="Ícono de WhatsApp">
  <!-- Silueta del ícono oficial de WhatsApp, en blanco para resaltar sobre el botón verde -->
  <path fill="#ffffff" d="M16.004 3C9.376 3 4 8.373 4 15c0 2.43.713 4.69 1.94 6.59L4 29l7.59-1.91A11.93 11.93 0 0 0 16.004 27C22.63 27 28 21.627 28 15S22.63 3 16.004 3Zm0 21.7c-1.99 0-3.85-.55-5.44-1.5l-.39-.23-4.5 1.13 1.16-4.39-.25-.4A9.62 9.62 0 0 1 6.3 15c0-5.36 4.36-9.7 9.7-9.7 5.36 0 9.7 4.34 9.7 9.7 0 5.35-4.34 9.7-9.7 9.7Zm5.32-7.27c-.29-.15-1.72-.85-1.99-.94-.27-.1-.46-.15-.66.15-.2.29-.75.94-.92 1.13-.17.2-.34.22-.63.07-1.7-.85-2.82-1.52-3.94-3.45-.3-.51.3-.47.86-1.57.1-.2.05-.37-.05-.51-.1-.15-.66-1.59-.9-2.18-.24-.57-.49-.49-.67-.5-.17-.01-.37-.01-.57-.01-.2 0-.51.07-.78.37-.27.29-1.04 1.02-1.04 2.48 0 1.46 1.06 2.87 1.21 3.07.15.2 2.07 3.16 5.02 4.31 2.5.99 3.01.79 3.55.74.54-.05 1.72-.7 1.96-1.38.24-.68.24-1.26.17-1.38-.07-.12-.27-.2-.56-.35Z"/>
</svg>
